<?xml version="1.0" encoding="UTF-8"?>
<svg width="108px" height="27px" viewBox="0 0 108 27" version="1.1" xmlns="http://www.w3.org/2000/svg" xmlns:xlink="http://www.w3.org/1999/xlink">
    <title>DaoCloud</title>
    <g id="页面-1" stroke="none" stroke-width="1" fill="none" fill-rule="evenodd">
        <g id="登录" transform="translate(-846.000000, -149.000000)" fill="#4496FF" fill-rule="nonzero">
            <g id="DaoCloud" transform="translate(846.000000, 149.000000)">
                <path d="M16.012279,16.9511106 L15.5563485,23.3346512 L12.0160161,26.0168068 L8.4219995,23.3346512 L8.01949635,16.9511106 L12.0427298,19.6332662 L16.012279,16.9511106 Z M23.2005691,12.1233845 L22.4495039,18.1581063 L17.4607253,21.9131755 L17.8899421,15.6904306 L23.2005691,12.1233845 Z M0.804749433,12.1233845 L6.11537648,15.6904306 L6.51762277,21.9131755 L1.50187358,18.1848199 L0.804749433,12.1233845 Z M67.6878267,6.29802065 C69.4116293,6.29802065 70.4383077,6.78220599 71.6003526,7.59568874 L70.5937094,9.41632838 C69.6058172,8.87409217 68.966487,8.56431629 67.6883405,8.56431629 C66.4101939,8.56431629 65.5771896,9.47463611 65.5771896,10.9467137 L65.5771896,15.7305162 C65.5771896,17.2609015 66.4292017,18.1129136 67.6883405,18.1129136 C68.9667439,18.1129136 69.6058172,17.8031377 70.5937094,17.2609015 L71.6008663,19.1008058 C70.439592,19.9148023 69.412143,20.3987308 67.6878267,20.3987308 C64.9568673,20.3987308 62.9615613,18.6749282 62.9615613,15.9632334 L62.9615613,10.7139965 C62.9615613,8.00255855 64.9563536,6.29802065 67.6878267,6.29802065 Z M46.151725,9.69605137 C48.8153866,9.69605137 50.3724855,10.8077512 50.3724855,13.3504306 L50.3724855,20.1254294 L50.3712012,20.1267137 L48.2063662,20.1267137 L48.06689,19.1442156 C47.4655754,19.825928 46.3659481,20.3257819 45.1604936,20.3257819 C43.1972954,20.3257819 41.7329237,18.927167 41.7329237,17.2547368 C41.7329237,13.0748678 47.2891508,12.8791785 47.7249333,12.8702584 L47.7519768,12.8698413 C47.7519768,12.5343792 47.2749836,11.5051322 45.10758,11.5051322 C44.4700205,11.5263842 43.8391815,11.6424752 43.2358247,11.8495845 L42.7477865,10.4987459 C43.8125517,9.99247865 44.9729493,9.71884126 46.151725,9.69605137 Z M56.7380458,9.69939058 C59.37448,9.69939058 61.0073533,11.2734425 61.0073533,13.8507983 L61.0073533,16.1723193 C61.0271317,18.7496751 59.37448,20.323727 56.7380458,20.323727 C54.0820902,20.323727 52.4484462,18.7496751 52.4484462,16.1723193 L52.4484462,13.8507983 C52.4484462,11.2734425 54.0815764,9.69939058 56.7380458,9.69939058 Z M82.1365852,9.86172752 C84.730894,9.86172752 86.3396223,11.4111206 86.3396223,13.9486628 L86.3396223,16.2347368 C86.3588869,18.7720222 84.7319214,20.3216721 82.1365852,20.3216721 C79.5219844,20.3216721 77.9142836,18.772279 77.9142836,16.2347368 L77.9142836,13.9486628 C77.9142836,11.4113775 79.5219844,9.86172752 82.1365852,9.86172752 Z M90.9510703,10.0556585 L90.9510703,16.137386 C90.9510703,17.5709343 91.2415815,18.1907429 92.2096953,18.1907429 C92.9969987,18.1790642 93.7161525,17.7416732 94.0886427,17.0479627 L94.0886427,10.0556585 L96.5881692,10.0556585 L96.5881692,20.1274843 L94.4189675,20.1274843 L94.2252934,19.1770939 C93.4926336,19.86741 92.5373408,20.273086 91.5318358,20.3209015 C89.2270108,20.3209015 88.4718358,18.9263964 88.4718358,16.3698464 L88.4718358,10.0556585 L90.9510703,10.0556585 Z M107.105137,5.60038278 L107.105137,20.1272274 L105.071559,20.1272274 L104.9552,19.2749584 C104.209958,19.9565021 103.234093,20.3302533 102.224241,20.3209015 C99.958202,20.3209015 98.7766356,18.7715084 98.7766356,16.2339663 L98.7766356,13.7742533 C98.7766356,11.2174465 99.9191589,9.86172752 102.146668,9.86172752 C102.989994,9.84482947 103.827648,10.0031415 104.606638,10.3266482 L104.606638,5.60038278 L107.105137,5.60038278 Z M75.7458524,5.60063964 L75.7458524,20.1274843 L73.266618,20.1274843 L73.266618,5.60063964 L75.7458524,5.60063964 Z M35.6229413,6.35478721 C38.4363536,6.35478721 40.1873835,8.08629564 40.1873835,10.8406296 L40.1873835,15.641385 C40.1873835,18.3761974 38.4363536,20.1272274 35.6229413,20.1272274 L30.5666079,20.1272274 L30.5666079,6.35478721 L35.6229413,6.35478721 Z M47.8159355,14.3899522 C47.4049559,14.3899522 44.3079678,14.6552909 44.3079678,17.0099471 C44.2943714,17.3765714 44.4368161,17.7317779 44.6999556,17.9874257 C44.9630952,18.2430736 45.3222667,18.3752021 45.6883455,18.3510249 C46.5411102,18.3234291 47.3287091,17.8878702 47.8054042,17.1802468 L47.8159355,14.3899522 Z M102.708426,12.0697154 C101.759577,12.0697154 101.236605,12.6507378 101.236605,13.9679275 L101.236605,16.0212843 C101.236605,17.4340267 101.624211,18.1712214 102.747469,18.1712214 C103.512993,18.2135176 104.235304,17.8143957 104.606895,17.1437723 L104.606895,12.4570637 C104.010635,12.1882191 103.362112,12.0558817 102.708426,12.0697154 Z M82.1365852,12.010894 C81.0133266,12.010894 80.4127827,12.7470612 80.4127827,14.1610879 L80.393518,16.0212843 C80.393518,17.4340267 81.0133266,18.1712214 82.1365852,18.1712214 C83.2410929,18.1712214 83.8603878,17.4350541 83.8603878,16.0212843 L83.8603878,14.1610879 C83.8603878,12.7483455 83.2405792,12.010894 82.1365852,12.010894 Z M56.7365047,11.884004 C55.5955225,11.884004 54.9854747,12.63173 54.9854747,14.0673332 L54.9656963,15.9570687 C54.9656963,17.3934425 55.5952657,18.1403979 56.7365047,18.1403979 C57.8579652,18.1403979 58.4875346,17.3926719 58.4875346,15.9570687 L58.4875346,14.0673332 C58.4875346,12.6312163 57.8579652,11.884004 56.7365047,11.884004 Z M35.6229413,8.69634349 L33.2030421,8.69634349 L33.2030421,17.785928 L35.6229413,17.785928 C36.8625585,17.785928 37.5314279,16.9793805 37.5314279,15.4053286 L37.5314279,11.0769428 C37.5314279,9.50289096 36.863586,8.69634349 35.6229413,8.69634349 Z M3.91586502,3.48690506 L9.97755729,6.49090909 L5.68615966,8.63647948 L5.98103752,13.4107781 L0.509614707,9.78979098 L7.46069873e-14,5.20351549 L3.91586502,3.48690506 Z M20.062483,3.48690506 L24.0320322,5.20351549 L23.4687333,9.76307731 L18.0507378,13.4107781 L18.3995568,8.63647948 L14.0544749,6.49090909 L20.062483,3.48690506 Z M11.9890456,-2.13162821e-14 L17.8899421,2.57478721 L12.0160161,5.47167968 L6.08840594,2.54807353 L11.9890456,-2.13162821e-14 Z" id="形状结合"></path>
            </g>
        </g>
    </g>
</svg>